{"title":"Kung Fu Panda 2 V2 TS XViD - DTRG - SAFCuk009","uid":6469184,"size":1254886982,"categoryP":"video","categoryS":"movies","magnet":"?xt=urn:btih:42cc37ff91d33fe7ef22e16a7b5ffe50b869a776&amp;dn=Kung+Fu+Panda+2+V2+TS+XViD+-+DTRG+-+SAFCuk009&amp;tr=udp%3A%2F%2Ftracker.openbittorrent.com%3A80&amp;tr=udp%3A%2F%2Fopen.demonii.com%3A1337&amp;tr=udp%3A%2F%2Ftracker.coppersurfer.tk%3A6969&amp;tr=udp%3A%2F%2Fexodus.desync.com%3A6969","seeders":0,"leechers":1,"uploader":"SAFCukO09","files":3,"time":1308060449,"description":"Format : AVI\nFormat/Info : Audio Video Interleave\nFile size : 1.17 GiB\nDuration : 1h 21mn\nOverall bit rate : 2 056 Kbps\nWriting application : VirtualDubMod 1.5.10.2 (build 2540/release)\nWriting library : VirtualDub build 32839/release\n\nVideo\nID : 0\nFormat : MPEG-4 Visual\nFormat profile : Advanced Simple@L5\nFormat settings, BVOP : 2\nFormat settings, QPel : No\nFormat settings, GMC : No warppoints\nFormat settings, Matrix : Default (H.263)\nMuxing mode : Packed bitstream\nCodec ID : XVID\nCodec ID/Hint : XviD\nDuration : 1h 21mn\nBit rate : 1 854 Kbps\nWidth : 720 pixels\nHeight : 320 pixels\nDisplay aspect ratio : 2.25:1\nFrame rate : 25.000 fps\nColor space : YUV\nChroma subsampling : 4:2:0\nBit depth : 8 bits\nScan type : Progressive\nCompression mode : Lossy\nBits/(Pixel*Frame) : 0.322\nStream size : 1.05 GiB (90%)\nWriting library : XviD 63\n\nAudio\nID : 1\nFormat : MPEG Audio\nFormat version : Version 1\nFormat profile : Layer 3\nCodec ID : 55\nCodec ID/Hint : MP3\nDuration : 1h 21mn\nBit rate mode : Constant\nBit rate : 192 Kbps\nChannel(s) : 2 channels\nSampling rate : 44.1 KHz\nCompression mode : Lossy\nStream size : 112 MiB (9%)\nAlignment : Split accross interleaves\nInterleave, duration : 40 ms (1.00 video frame)\nInterleave, preload duration : 500 ms\n\n\n\n &lt;a href=&quot;\nhttp://www.imdb.com/title/tt1302011/&quot; rel=&quot;nofollow&quot; target=&quot;_NEW&quot;&gt;\nhttp://www.imdb.com/title/tt1302011/&lt;/a&gt;\n\n\n\n\n89524873606771859129.png\n\n\nIn Kung Fu Panda 2, Po is now living his dream as The Dragon Warrior, protecting the Valley of Peace alongside his friends and fellow kung fu masters, The Furious Five. But Po's new life of awesomeness is threatened by the emergence of a formidable villain, who plans to use a secret, unstoppable weapon to conquer China and destroy kung fu. Po must look to his past and uncover the secrets of his mysterious origins; only then will he be able to unlock the strength he needs to succeed.\n\n\n\n95521316153253938506.png\n\n\n\n\nvlcsnap2011061408h19m40.png\n\nvlcsnap2011061408h19m05.png\n\nvlcsnap2011061408h19m26.png\n\nvlcsnap2011061408h20m02.png\n\nSource Used\n\n\nVideo Source:: FloppyDisk .....Thanks\nAudio Source:: EP1C...............Thanks\n\nJust my take on this using the new improved source ...Enjoy !\n\n\nGreetz to IMAGiNE,Flawl3ss,DiLLoN,BDK,NOiR,TOXiC,THC,Ez,Rx,Boobyblue,TaRiQ786,LKRG,EP1C","torrent":{"xt":"urn:btih:42cc37ff91d33fe7ef22e16a7b5ffe50b869a776","amp;dn":"Kung+Fu+Panda+2+V2+TS+XViD+-+DTRG+-+SAFCuk009","amp;tr":["udp%3A%2F%2Ftracker.openbittorrent.com%3A80","udp%3A%2F%2Fopen.demonii.com%3A1337","udp%3A%2F%2Ftracker.coppersurfer.tk%3A6969","udp%3A%2F%2Fexodus.desync.com%3A6969"],"infoHash":"42cc37ff91d33fe7ef22e16a7b5ffe50b869a776","infoHashBuffer":{"type":"Buffer","data":[66,204,55,255,145,211,63,231,239,34,225,106,123,95,254,80,184,105,167,118]},"announce":[],"urlList":[]}}